inDegrees=no
num_controls=7
num_derivatives=13
num_iterations=111
num_multipliers=7
num_parameters=0
num_slacks=7
num_states=26
objective=5.910061
objective_accelerations=0.772422
objective_balance=0.011890
objective_effort=0.522463
objective_height=4.556167
objective_ligament=0.047118
solver_duration=928.663542
status=Solve_Succeeded
success=true
DataType=double
version=3
OpenSimVersion=4.4-2022-07-23-0e9fedc
endheader
time	/jointset/ground_pelvis/pelvis_tilt/value	/jointset/ground_pelvis/pelvis_tx/value	/jointset/ground_pelvis/pelvis_ty/value	/jointset/hip_r/hip_flexion_r/value	/jointset/hip_r/hip_adduction_r/value	/jointset/hip_r/hip_rotation_r/value	/jointset/back/lumbar_extension/value	/jointset/patellofemoral_r/patellar_flexion_r/value	/jointset/knee_r/knee_flexion_r/value	/jointset/knee_r/knee_adduction_r/value	/jointset/knee_r/knee_rotation_r/value	/jointset/ankle_r/ankle_angle_r/value	/jointset/subtalar_r/subtalar_angle_r/value	/jointset/ground_pelvis/pelvis_tilt/speed	/jointset/ground_pelvis/pelvis_tx/speed	/jointset/ground_pelvis/pelvis_ty/speed	/jointset/hip_r/hip_flexion_r/speed	/jointset/hip_r/hip_adduction_r/speed	/jointset/hip_r/hip_rotation_r/speed	/jointset/back/lumbar_extension/speed	/jointset/patellofemoral_r/patellar_flexion_r/speed	/jointset/knee_r/knee_flexion_r/speed	/jointset/knee_r/knee_adduction_r/speed	/jointset/knee_r/knee_rotation_r/speed	/jointset/ankle_r/ankle_angle_r/speed	/jointset/subtalar_r/subtalar_angle_r/speed	/forceset/tau_hip_flexion_r	/forceset/tau_hip_adduction_r	/forceset/tau_hip_rotation_r	/forceset/tau_knee_flexion_r	/forceset/tau_ankle_angle_r	/forceset/tau_subtalar_angle_r	/forceset/tau_lumbar_extension	lambda_cid13_p0	lambda_cid14_p0	lambda_cid14_p1	lambda_cid14_p2	lambda_cid14_p3	lambda_cid14_p4	lambda_cid14_p5	/jointset/ground_pelvis/pelvis_tilt/accel	/jointset/ground_pelvis/pelvis_tx/accel	/jointset/ground_pelvis/pelvis_ty/accel	/jointset/hip_r/hip_flexion_r/accel	/jointset/hip_r/hip_adduction_r/accel	/jointset/hip_r/hip_rotation_r/accel	/jointset/back/lumbar_extension/accel	/jointset/patellofemoral_r/patellar_flexion_r/accel	/jointset/knee_r/knee_flexion_r/accel	/jointset/knee_r/knee_adduction_r/accel	/jointset/knee_r/knee_rotation_r/accel	/jointset/ankle_r/ankle_angle_r/accel	/jointset/subtalar_r/subtalar_angle_r/accel	gamma_cid13_p0	gamma_cid14_p0	gamma_cid14_p1	gamma_cid14_p2	gamma_cid14_p3	gamma_cid14_p4	gamma_cid14_p5
1	-0.273050569076419	-0.02860332338657431	0.5696593259871828	1.632239315267771	-0.243053396119199	-0.04423339688615535	-0.7853826410540828	1.673749722697949	1.67374972269795	-0.1745313905075407	0.1744473143051881	0.4361597966987816	0.1657236664439816	0.06862266873047082	0.004960166900701982	0.01547946720402105	-0.09974049374208208	-0.001403364738606024	-0.00246296485637586	-0.0002959442492276118	-0.01458823825534027	-0.01458823825533859	0.002700952357874108	-0.0004036096476842188	0.01677017410122615	0.005765627254123302	-0.3667892249550598	0.02188219430338599	0.003462629132575371	-0.4970184196104381	-0.003896575377217752	0.001772901503255161	0.3789715124746837	-0.03913067045289698	-54.7375132921835	-13.23668462261405	7.583797451697369	11.15794168401008	-790.2385548695562	68.00626153693952	1.140807317832301	0.04869163782775177	2.199630984270466	-6.219190110374591	0.2275978272151479	-1.023535722941676	-0.03029510018457333	-5.747265718014995	-5.747265718015093	0.4865371118162762	-0.044176058297756	-0.8305551009786458	0.04115901419433474	1.101685101672879e-09	1.661676146637363e-09	3.015457493750104e-09	9.126470847099052e-09	-2.110487587396537e-09	-4.823433562904681e-09	7.087370754259713e-09
1.01	-0.2723077677446213	-0.02855123161365757	0.5699239756135082	1.63093159409746	-0.2430559474804349	-0.04430595957687535	-0.785386339217004	1.673316908380498	1.673316908380556	-0.1744769644439996	0.1744407878923105	0.4362860364017569	0.1657835249067263	0.07994658764742696	0.005466885290594675	0.03744772461714416	-0.1618098845450968	0.0008866124835718592	-0.01198766059578485	-0.0004287794927199894	-0.07196405720562914	-0.07196405720562972	0.008253472753938	-0.0008871439678463373	0.008480457497611416	0.006193356011744236	-0.3663903462064436	0.02183040007494017	0.0035493568974338	-0.4972895903260732	-0.003498772598146101	0.001774720737480725	0.378859127227599	-0.03913249192418491	-54.60102986426973	-13.21522634478216	7.58406497785411	10.97753993622716	-790.1656863247684	68.08064944552895	1.129534106180363	0.05296514268643376	2.195010614026136	-6.201733933257587	0.2287310120158922	-0.907648054134181	-0.00254140742310673	-5.731155900787579	-5.73115590078798	0.5999902955668632	-0.04825169276441135	-0.8277761326938201	0.04168338988608369	5.566504718432259e-09	8.437601522449475e-09	3.329747434285811e-08	4.012371937384053e-08	-7.145661052573804e-09	-1.237047798173272e-08	7.691411046478315e-08
1.02	-0.2714514572381752	-0.02849381201622054	0.5704082253128037	1.629002994945491	-0.2430357924010237	-0.04447191153572154	-0.7853909184666548	1.672310652690093	1.672310652690213	-0.1743649370183021	0.1744298642216453	0.4363294597002065	0.1658472813737087	0.09132450366653092	0.006025731804761207	0.05939948179809108	-0.2239160900678178	0.003137923397577163	-0.02114081852296401	-0.0004721615758455009	-0.1292765128459951	-0.1292765128459937	0.01422122483262388	-0.001283061243576335	0.0002068931883622715	0.006545228102980146	-0.365991467457805	0.02177860584669242	0.00363608466254668	-0.4975607610416788	-0.00310096981901008	0.001776539972104737	0.3787467419805478	-0.03914450718803743	-54.47087028712831	-13.19253569600302	7.581463242404316	10.80684302096788	-790.1871782084114	68.17422937133672	1.151606738261562	0.05911726268295312	2.196330937835267	-6.226553054316176	0.2198645655804231	-0.9492281604959876	-0.01240446811077712	-5.734593056030161	-5.73459305602942	0.569583448340512	-0.02665264941112	-0.8273246421045949	0.02598768091742755	1.467988909773831e-08	1.930107790494046e-08	7.601390772741841e-08	9.677096391993765e-08	-1.185838452638985e-08	-2.356087343110018e-08	2.00029830237856e-07
1.03	-0.270481183660811	-0.02843054679300642	0.5711119385971137	1.6264532123609	-0.2429932821124745	-0.04472756890740678	-0.7853952085304354	1.670731297046775	1.67073129704684	-0.174191132869165	0.1744154278367546	0.4362899435382724	0.1659140999828696	0.1027312212947511	0.006635735183520499	0.08134351986809864	-0.2860418058855227	0.005363407318589189	-0.02994163208681113	-0.0003440916452865822	-0.1866142135468777	-0.1866142135468713	0.02059844861909542	-0.001594823972236127	-0.008134927652636003	0.006802953526728575	-0.3657646549378329	0.0218468754790388	0.003802498911657405	-0.4977175672333076	-0.002942302961533221	0.001770871203580342	0.3788457391416279	-0.03917224356187192	-54.43073820922632	-13.18734513959058	7.579921250275208	10.73894148234911	-790.3581132458112	68.24427785167929	1.135361908835366	0.06320188404761254	2.193484936284533	-6.205781979163371	0.2238003053357922	-0.8381438912098618	0.03167666206859147	-5.736303060635635	-5.736303060635564	0.6806099166570794	-0.03198610738128368	-0.8413305951052144	0.02337091595560347	2.384070781135609e-08	3.020626399158125e-08	1.188572229133609e-07	1.536799431192937e-07	-1.65678176941716e-08	-3.47884459317997e-08	3.236893151136083e-07
1.04	-0.2693968113804509	-0.0283609295342916	0.5720351012010644	1.623282132391372	-0.2429285349847533	-0.04506976160191471	-0.7853969651080901	1.668577975499744	1.668577975499749	-0.17395179286774	0.1743981642201443	0.4361662652098983	0.165983037034832	0.1141442442723287	0.007296138904901718	0.1032893457262649	-0.3481755670498465	0.00758529123853629	-0.03844788312590849	3.453582245822309e-05	-0.2440696935885042	-0.2440696935884968	0.02732839531983691	-0.001848507612420408	-0.0166255400939609	0.006968916664564582	-0.3655378424178211	0.02191514511155585	0.003968913160867397	-0.4978743734249176	-0.002783636104002795	0.001765202435401749	0.3789447363027569	-0.039209754408141	-54.39695106736221	-13.18053722327234	7.575004647390589	10.67960281455338	-790.6253962901473	68.33584369120939	1.152867808133396	0.06919733120693039	2.196688495466929	-6.228162123639615	0.2191445653674632	-0.890315655546273	0.0377070393246749	-5.758148924179119	-5.758148924179166	0.6401280311943224	-0.01503683171584656	-0.8570829621708183	0.007635223734558691	3.222024958394128e-08	4.199504806983357e-08	1.619660151152049e-07	2.098922650300857e-07	-2.426012458672247e-08	-4.349277796475103e-08	4.422176397651117e-07
1.05	-0.2681986108412762	-0.02828429910378257	0.5731775626013059	1.619490223371872	-0.2428416422832173	-0.04549551300853071	-0.7853921915222997	1.665849867757912	1.66584986775791	-0.1736434131492253	0.1743787121100146	0.435957088028164	0.1660531424862922	0.1254623140278829	0.008054190655261837	0.1251864978647192	-0.4101524634158065	0.009788665443826361	-0.04665315031952925	0.001112543809080225	-0.3015364268415637	-0.3015364268415625	0.03439918264986634	-0.002030693220702457	-0.02521880872390542	0.007037037514355597	-0.3659542163951207	0.02194842727708662	0.004188501280327197	-0.497433995103446	-0.002938384112729683	0.001816062896402649	0.3797924147066873	-0.0392442522866048	-54.4510241368743	-13.14871675237074	7.548001243617102	10.43012859574682	-790.9509426212755	68.40552601798846	1.116254807884097	0.08273912687274615	2.183752593476912	-6.174377341762083	0.2202790197134502	-0.7782262726658845	0.1717020432624755	-5.738629535345208	-5.738629535346322	0.7482843092529544	-0.01805146679087379	-0.861784570863026	0.004193937735644625	4.057537645211922e-08	5.381144458532375e-08	2.050831034737958e-07	2.660828164006101e-07	-3.204564628317237e-08	-5.211825873308523e-08	5.605856156596074e-07
1.06	-0.2668882339548491	-0.02819936214978731	0.5745385003270213	1.615080160598954	-0.2427328468053373	-0.04600183589121049	-0.7853708669831688	1.662547553881655	1.662547553881644	-0.1732627795124886	0.1743577897355832	0.4356617110086405	0.1661234878306708	0.1365795137281756	0.008957443602146111	0.1469846108210177	-0.4718063177292699	0.01196584651325423	-0.05456217836900694	0.003344726393007847	-0.3589109204736604	-0.358910920473665	0.04177917899373518	-0.002142560485252658	-0.03386550765213088	0.007016895249522514	-0.3663705903723672	0.02198170944270649	0.004408089399976195	-0.4969936167819491	-0.003093132121429832	0.001866923357580412	0.3806400931106732	-0.03928805766485363	-54.51155513833162	-13.11492267813604	7.517136926289277	10.18842839820213	-791.3761488848115	68.49893756959924	1.112693797081465	0.09823757051138113	2.176880659035694	-6.163553713139934	0.2139059381950346	-0.8310678267178701	0.2685419587862168	-5.739700999986695	-5.739700999986674	0.7019698339620476	-0.0009731629693234176	-0.8677690218278369	-0.01001739919061027	4.88008068238697e-08	6.573104960833225e-08	2.445634733884753e-07	3.205876208782031e-07	-4.072425172198621e-08	-6.021534074616862e-08	6.725887364313894e-07
1.07	-0.2654675950165907	-0.02810462532604467	0.5761168057428109	1.610055371572841	-0.2426024333916884	-0.04658580312061775	-0.7853215113540343	1.658672185031808	1.65867218503182	-0.1728068774666265	0.1743361278449699	0.4352795369120735	0.1661931148040718	0.1475214150644797	0.01001827815893773	0.1686480415356628	-0.5330760493181891	0.014112492114655	-0.06218315490928607	0.006715954986610651	-0.4161248967963623	-0.4161248967963646	0.0494444038463232	-0.002181207733499689	-0.0425835650461543	0.006891038234951293	-0.3664006022178752	0.02199724573051502	0.004695194958373395	-0.4962181000401183	-0.003070002162937665	0.00191979700804171	0.3811838803970842	-0.0393374454802496	-54.47771683982523	-13.05985148474742	7.47844959745883	9.860038219578721	-791.2801398920144	68.56769918820603	1.08092429355165	0.1142499356682846	2.156795886352562	-6.097353084311175	0.2144380764577334	-0.7203678828697445	0.3998466444504105	-5.706564564011683	-5.706564564011569	0.8052533001820951	-0.003914042038523647	-0.8759600623297533	-0.01639998421946104	5.701933844581021e-08	7.765614444557044e-08	2.838504008327339e-07	3.750027579678741e-07	-4.945036161518112e-08	-6.828431644248335e-08	7.842533010796227e-07
